<?xml version="1.0" standalone="no"?>
<!DOCTYPE svg PUBLIC "-//W3C//DTD SVG 1.1//EN" "http://www.w3.org/Graphics/SVG/1.1/DTD/svg11.dtd" >
<svg xmlns="http://www.w3.org/2000/svg" xmlns:xlink="http://www.w3.org/1999/xlink" version="1.1">
<metadata>
Created by FontForge 20161003 at Mon Jun 24 14:57:45 2019
 By www-data
(C)2001 Nate Piekos.  www.blambot.com
</metadata>
<defs>
<font id="animeace" horiz-adv-x="414" >
  <font-face 
    font-family="animeace"
    font-weight="400"
    font-stretch="normal"
    units-per-em="1024"
    panose-1="2 11 6 3 5 3 2 2 2 4"
    ascent="819"
    descent="-205"
    x-height="823"
    cap-height="856"
    bbox="16 -147 988 969"
    underline-thickness="0"
    underline-position="0"
    unicode-range="U+0020-2122"
  />
<missing-glyph horiz-adv-x="512" 
d="M64 0v969h384v-969h-384zM128 64h256v841h-256v-841z" />
    <glyph glyph-name=".notdef" horiz-adv-x="512" 
d="M64 0v969h384v-969h-384zM128 64h256v841h-256v-841z" />
    <glyph glyph-name=".null" horiz-adv-x="0" 
 />
    <glyph glyph-name="nonmarkingreturn" 
 />
    <glyph glyph-name="space" unicode=" " 
 />
    <glyph glyph-name="exclam" unicode="!" horiz-adv-x="396" 
d="M158 318q-52 0 -52 30q0 16 8 43q11 42 11 43q23 119 46 239q32 156 63 227q14 31 81 31q25 0 53 -6q41 -9 41 -25q0 -5 -64 -143q-73 -156 -76 -162q-48 -111 -61 -196l-6 -56q-8 -25 -44 -25zM102 41q-41 0 -41 28q0 42 7 125q3 24 70 24q52 0 52 -16
q0 -14 -12.5 -68.5t-18.5 -70.5q-8 -22 -57 -22z" />
    <glyph glyph-name="quotedbl" unicode="&#x22;" horiz-adv-x="470" 
d="M390 896q0 -165 -14 -286q-5 -46 -56 -46q-45 0 -45 63q0 10 1 29.5t1 27.5q0 32 -3.5 97t-3.5 97q0 26 22 41t49 15q49 0 49 -38zM199 877q0 -164 -15 -286q-5 -45 -56 -45q-44 0 -44 52q0 11 1.5 33t1.5 33q0 32 -4.5 97t-4.5 98q0 26 22 41t49 15q50 0 50 -38z" />
    <glyph glyph-name="numbersign" unicode="#" horiz-adv-x="775" 
d="M707 307q0 -18 -19 -23q-25 -7 -96 -17q8 -60 20 -182v-5q1 -21 -31 -36q-26 -12 -51 -12q-33 0 -36 21.5t-9 196.5q-79 -13 -202 -26q1 -50 7 -119q5 -56 5 -53q0 -23 -29 -36q-23 -11 -50 -11q-42 0 -42 41v17q1 11 1 17q0 47 4 132q-39 -4 -46 -4q-32 0 -53 27
q-20 24 -20 58q0 23 26 26q32 1 97 3q2 62 6 127q-31 -6 -49 -6q-35 0 -57.5 25t-22.5 61q0 23 26 26q36 1 109 3q3 73 13 219q5 59 84 59q37 0 35 -24v-5q-3 -43 -15 -122q-13 -84 -16 -122q104 6 178 24l-1 96q0 77 0 69q3 43 24 59q30 22 78 22q36 0 36 -28q0 -35 -8 -93
q-9 -70 -10 -93q42 13 49 13q24 0 44 -30t20 -56q0 -22 -18 -27q-24 -6 -100 -17q-1 -33 -1 -83v-37q53 15 59 15q23 0 43 -35q18 -30 18 -55zM480 353q-4 126 -4 131q-62 -9 -188 -24q-5 -59 -5 -134q111 7 197 27z" />
    <glyph glyph-name="dollar" unicode="$" horiz-adv-x="813" 
d="M758 405q0 -21 -6 -40q-29 -104 -102 -186.5t-174 -131.5q1 -7 5 -29q3 -18 3 -29q0 -26 -28.5 -44.5t-55.5 -18.5q-29 0 -35 27q-2 8 -2 51q-66 -16 -113 -16q-56 0 -89 23q-25 18 -53 52q-32 41 -32 64q0 18 14 46q15 32 31 32q10 0 24 -17q73 -85 198 -82h16
q-6 131 -9 284q-72 4 -218 14q-61 5 -69 50q-4 21 -4 40q0 12 2 19q34 93 114 174q77 79 170 120v25q-1 16 -1 25q0 47 26.5 74.5t74.5 27.5q37 0 37 -36q0 -14 -3 -39q-3 -29 -4 -39q57 8 83 8q29 0 42 -6q17 -9 17 -38q0 -23 8.5 -62.5t8.5 -50.5q0 -20 -28.5 -42.5
t-49.5 -22.5q-17 0 -29 32l-14 48l-24 1l-23 -1q-6 -97 -8 -190q106 -9 135 -13q78 -9 133 -24q32 -9 32 -79zM346 528v76q-1 50 -1 76q-37 -18 -87 -61q-59 -51 -59 -80q0 -12 32 -12h58q38 1 57 1zM458 378q0 -105 10 -247q55 22 100 72q49 55 49 109q0 30 -30 41
q-26 10 -129 25z" />
    <glyph glyph-name="percent" unicode="%" horiz-adv-x="891" 
d="M479 61q-102 0 -141 61q-19 -37 -60 -109q-17 -25 -53 -25q-23 0 -45 10q-26 13 -26 33q0 14 222 354q-80 -29 -156 -29q-67 0 -110 26q-51 32 -51 95q0 94 109 234q39 51 92 83q60 37 118 37q61 0 117 -50q49 -44 75 -106q32 48 100 142q25 33 65 33q24 0 50 -13
q30 -16 30 -38q0 -10 -7 -21q-22 -26 -65 -78q-62 -76 -130 -167q14 2 28 2q59 0 105 -39q103 -89 103 -176q0 -19 -6 -39q-31 -102 -146 -164q-103 -56 -218 -56zM477 572q0 54 -29 97q-33 47 -84 47q-56 0 -120 -55q-67 -57 -67 -111q0 -48 54 -74q43 -22 96 -22
q61 0 103 28q47 32 47 90zM625 422q-48 0 -91 -33q-99 -74 -99 -130q0 -44 52 -73q45 -25 93 -25q58 0 105 26q58 31 58 84q0 55 -31 100q-35 51 -87 51z" />
    <glyph glyph-name="ampersand" unicode="&#x26;" horiz-adv-x="765" 
d="M633 -91q-37 0 -37 28q0 16 11 100q-112 -52 -222 -52q-119 0 -216 52q-118 63 -118 172q0 85 72 156q50 48 148 99q-83 49 -83 142q0 84 102 196q62 68 153 68q97 0 163 -74q47 -52 47 -82q0 -16 -7 -31q-9 -20 -23 -20q-12 0 -60.5 37t-99.5 37q-58 0 -104 -44
t-46 -102q0 -51 29 -66q14 -8 63 -12q45 -3 65 -18q32 -27 32 -61q0 -41 -52 -49l-114 -12q-74 -13 -110 -60q-32 -43 -32 -86q0 -68 67 -111q59 -37 131 -37q92 0 222 71l1 26q1 49 -12 124q-16 93 -19 122v7q0 20 33 34q26 12 49 12q31 0 35 -20q14 -66 14 -327l-1 -154
q0 -28 -25.5 -46.5t-55.5 -18.5z" />
    <glyph glyph-name="quotesingle" unicode="'" horiz-adv-x="323" 
d="M140 596q-21 0 -38.5 11.5t-17.5 31.5q0 16 15 46q20 40 47 112q32 82 45.5 112t50.5 30q23 0 46.5 -13t23.5 -35q0 -14 -59 -131q-53 -105 -73 -138q-16 -26 -40 -26z" />
    <glyph glyph-name="parenleft" unicode="(" horiz-adv-x="542" 
d="M138 344q0 -168 256 -258q35 -7 97 -30q26 -15 26 -47q0 -22 -12 -47q-15 -30 -35 -30q1 0 -14 7q-94 44 -189 89q-103 56 -161 130q-77 99 -77 203q0 141 130 292q143 165 253 230q19 11 37 11q25 0 50.5 -18t25.5 -41q0 -12 -10 -21q-17 -16 -51 -38q-41 -26 -53 -35
q-273 -208 -273 -397z" />
    <glyph glyph-name="parenright" unicode=")" horiz-adv-x="613" 
d="M136 -66q-25 0 -50 18t-25 41q0 11 9 20q18 16 51 38q41 26 53 35q272 208 272 397q0 167 -255 258q-35 7 -97 30q-25 15 -25 47q0 23 12 48q14 30 35 30q-1 0 14 -7q170 -79 189 -89q103 -57 161 -131q77 -100 77 -204q0 -141 -131 -291q-144 -166 -253 -229
q-19 -11 -37 -11z" />
    <glyph glyph-name="asterisk" unicode="*" horiz-adv-x="462" 
d="M304 742q26 -17 53 -34q32 -24 32 -48q0 -15 -8 -31q-10 -19 -23 -19q-5 0 -94 73v-92q0 -20 -17.5 -33t-37.5 -13q-26 0 -26 20q0 12 8 88q-18 -14 -36 -29q-25 -18 -39 -18q-17 0 -35 14t-18 30q0 7 7 13q20 16 58 38q46 28 59 37q-59 26 -129 63q-7 7 -7 21q0 15 9 34
q10 23 24 23q5 0 50 -28q28 -16 55 -33q-16 87 -16 89q0 16 23 25q19 8 38 8q18 0 20 -14q4 -24 8 -127q21 24 43 47q33 36 43 36q16 0 36.5 -16t20.5 -32q0 -10 -101 -92z" />
    <glyph glyph-name="plus" unicode="+" horiz-adv-x="691" 
d="M386 358q3 -18 25 -91q19 -66 19 -78q0 -23 -32 -40q-27 -15 -52 -15q-26 0 -31 18q-15 64 -28 196q-153 -14 -161 -14q-30 0 -49 28q-16 25 -16 58q0 25 23 27q-7 -1 127 -1q37 0 65 2q-17 151 -17 188q0 31 29 50q25 16 58 16q25 0 26 -24q0 1 0 -122q0 -58 3 -99
q24 3 106 26q76 22 93 22q22 0 40 -33q15 -29 15 -53q0 -25 -18 -29q-48 -11 -225 -32z" />
    <glyph glyph-name="comma" unicode="," horiz-adv-x="387" 
d="M134 -147q-21 0 -37 11q-19 12 -19 31q0 17 14 46q21 40 48 112q31 81 45 111.5t52 30.5q23 0 44 -12q26 -14 26 -36q0 -15 -60 -130q-51 -100 -74 -138q-15 -26 -39 -26z" />
    <glyph glyph-name="hyphen" unicode="-" horiz-adv-x="719" 
d="M137 309q-29 0 -48.5 24.5t-19.5 53.5q0 30 23 33q8 1 84 3q69 2 99 4q55 4 99 12q21 3 113 31q86 27 92 27q23 0 40 -30.5t17 -54.5q0 -22 -16 -28q-41 -15 -237.5 -45t-245.5 -30z" />
    <glyph glyph-name="hyphen" unicode="&#x2010;" horiz-adv-x="719" 
d="M137 309q-29 0 -48.5 24.5t-19.5 53.5q0 30 23 33q8 1 84 3q69 2 99 4q55 4 99 12q21 3 113 31q86 27 92 27q23 0 40 -30.5t17 -54.5q0 -22 -16 -28q-41 -15 -237.5 -45t-245.5 -30z" />
    <glyph glyph-name="period" unicode="." horiz-adv-x="312" 
d="M230 179q0 -13 -12.5 -69t-18.5 -73q-8 -24 -55 -24q-43 0 -43 30q0 43 8 130q2 26 70 26q51 0 51 -20z" />
    <glyph glyph-name="slash" unicode="/" horiz-adv-x="694" 
d="M109 -3q-22 0 -47 10q-32 14 -32 32q0 7 5 17q12 25 36 61l40 58l156 244q88 135 195 288q27 41 85 120q26 31 67 31q25 0 49 -12q29 -16 29 -39q0 -15 -52 -77q-33 -40 -67 -79q-205 -257 -352 -508q-20 -41 -66 -120q-18 -26 -46 -26z" />
    <glyph glyph-name="zero" unicode="0" horiz-adv-x="1040" 
d="M969 467q0 -194 -153 -336q-149 -138 -344 -138q-172 0 -290 113t-118 283q0 194 152 335q149 139 344 139q171 0 290 -113t119 -283zM822 421q0 135 -87 234q-90 103 -223 103q-132 0 -223 -104q-87 -99 -87 -233q0 -135 87 -233q91 -102 224 -102q131 0 222 103
q87 99 87 232z" />
    <glyph glyph-name="one" unicode="1" horiz-adv-x="388" 
d="M327 72q0 -23 -35 -37q-28 -12 -54 -12q-24 0 -28 20q-10 50 -13 140q-1 72 -3 144q-4 158 -6 327q-68 -32 -77 -32q-18 0 -34.5 25t-16.5 44q0 28 37 46q29 15 86 39q68 28 84 28q36 0 36 -25q0 -23 -4 -60q-5 -47 -6 -59q-4 -82 -4 -162q0 -173 22 -331q1 -6 10 -48
q6 -29 6 -47z" />
    <glyph glyph-name="two" unicode="2" horiz-adv-x="807" 
d="M763 496q0 -138 -109 -285q77 -58 77 -75q0 -14 -21.5 -24t-37.5 -10q-21 0 -78 38q-169 -177 -294 -177q-103 0 -174 88q-67 82 -67 187q0 79 44 124.5t122 45.5q131 0 332 -125q91 132 91 235q0 98 -56 157.5t-153 59.5q-77 0 -148 -38q-30 -16 -101 -71
q-50 -38 -77 -38q-33 0 -33 28t50 92q124 161 292 161q149 0 247 -113q94 -108 94 -260zM249 301q-84 0 -84 -118q0 -49 19.5 -71.5t68.5 -22.5q101 0 194 74q32 25 32 38t-120 69q-67 31 -110 31z" />
    <glyph glyph-name="three" unicode="3" horiz-adv-x="757" 
d="M701 296q0 -133 -159 -230q-142 -87 -286 -87q-39 0 -89 9q-58 11 -85.5 26.5t-27.5 52.5q0 55 31 55q10 0 35 -11q77 -33 165 -33q67 0 115 21q158 68 158 180q0 53 -37 83.5t-90 30.5q-25 0 -72 -8.5t-71 -8.5q-40 0 -40 38q0 34 33 69q20 21 64 34q49 14 63 25
q29 23 29 74q0 48 -37 81.5t-86 33.5q-42 0 -84 -30q-19 -13 -62 -56q-31 -29 -45 -29q-24 0 -24 44q0 33 46 93q40 51 94 83q60 36 118 36t104 -40q102 -89 102 -173q0 -91 -83 -161q99 -29 149 -66q72 -53 72 -136z" />
    <glyph glyph-name="four" unicode="4" horiz-adv-x="828" 
d="M603 312q2 -36 16 -115q14 -74 15 -115v-6q0 -21 -32 -36q-28 -12 -51 -12q-30 0 -34 20q-9 37 -12 123l-2 128q-104 -16 -193 -39q-10 -3 -102 -32q-81 -26 -89 -26q-24 0 -40 20.5t-16 46.5q0 12 5 24q-8 245 -8 351q0 56 1 65q1 31 24.5 52t54.5 21q38 0 38 -30
q0 -38 -6 -105q-6 -74 -7 -105q-1 -44 -1 -91q0 -53 2 -104q171 52 334 67q-6 196 -6 288v42q1 30 24.5 48t54.5 18q37 0 37 -27q0 -21 -4 -55q-4 -44 -5 -56q-5 -82 -5 -161q0 -46 2 -91q10 0 32.5 1t33.5 1q28 0 61 -19q38 -22 38 -48q0 -24 -69 -35q-46 -4 -91 -8z" />
    <glyph glyph-name="five" unicode="5" horiz-adv-x="668" 
d="M218 692l38 -176q221 -10 303 -115q56 -72 56 -149t-56 -142q-48 -56 -125 -91q-60 -27 -145 -27q-114 0 -199 40q-47 22 -47 76q0 32 20 32q8 0 37 -11q84 -33 176 -33q80 0 145 42q74 48 74 124q0 65 -54 108q-49 41 -115 41q-23 0 -66.5 -9t-61.5 -9q-32 0 -49 25
q-11 16 -21 53l-57 224q-6 26 -6 33q0 38 36 54q172 74 385 74q33 0 46 -1q24 -2 54 -22q33 -23 33 -44q0 -8 -4 -14q-9 -15 -61 -20q-225 -22 -336 -63z" />
    <glyph glyph-name="six" unicode="6" horiz-adv-x="850" 
d="M797 343q0 -82 -94 -176q-79 -79 -170 -120q-85 -39 -171 -39q-140 0 -229 126q-79 114 -79 259q0 201 159 339q119 102 318 102q30 0 45 -6q19 -9 28 -39q21 -79 55 -136q2 -5 2 -10q0 -21 -25 -40.5t-46 -19.5q-17 0 -28.5 15.5t-25.5 45.5q-19 41 -22 47
q-184 -29 -272 -134.5t-87 -211.5q302 108 469 108q173 0 173 -110zM690 299q0 21 -35 31q-25 7 -53 7q-105 0 -414 -110q56 -90 183 -90q70 0 141 29q59 23 106 52q72 46 72 81z" />
    <glyph glyph-name="seven" unicode="7" horiz-adv-x="759" 
d="M378 28q-22 0 -43 8q-27 11 -27 30q0 39 265 622q-56 2 -106 2q-153 0 -285 -23q-3 0 -41 -9q-25 -6 -41 -6q-24 0 -38 18.5t-14 43.5q0 50 44 63q105 31 293 31q182 0 255 -21q29 -8 56 -41q17 -20 17 -30q0 -7 -9 -21q-159 -256 -248 -544q-8 -34 -28 -98
q-10 -25 -50 -25z" />
    <glyph glyph-name="eight" unicode="8" horiz-adv-x="830" 
d="M772 254q0 -141 -185 -230q-152 -74 -309 -74q-226 0 -226 145q0 74 62 171q51 78 120 142q-50 8 -84 42t-34 83q0 84 111 226q92 118 212 118q58 0 103 -39q102 -87 102 -173q0 -92 -82 -161q76 -24 141 -97q69 -77 69 -153zM537 617q0 53 -30 97q-33 50 -84 50
q-57 0 -121.5 -56.5t-64.5 -112.5q0 -49 52 -73q39 -18 95 -18q59 0 102 26q51 31 51 87zM458 391q-72 0 -137 -41q-52 -33 -90 -72q-52 -54 -52 -98q0 -58 85 -90q65 -24 136 -24q84 0 146 31q79 39 79 114q0 55 -41.5 117.5t-125.5 62.5z" />
    <glyph glyph-name="nine" unicode="9" horiz-adv-x="842" 
d="M753 284q0 -40 8 -119.5t8 -119.5q0 -24 -33 -40q-28 -14 -54 -14q-29 0 -33 20q-1 5 -2 61q-1 39 -8 149q-6 94 -6 150q-160 -97 -353 -97q-92 0 -150 32q-72 41 -72 127q0 99 149 266q56 62 131 101q81 41 160 41q81 0 144 -48q137 -103 137 -216q0 -19 -5 -48
q-21 -125 -21 -245zM465 717q-72 0 -137 -41q-52 -33 -90 -72q-52 -54 -52 -98q0 -58 86 -90q65 -24 136 -24q84 0 146 31q79 39 79 114q0 55 -41.5 117.5t-126.5 62.5z" />
    <glyph glyph-name="colon" unicode=":" horiz-adv-x="329" 
d="M173 332q-42 0 -42 29q0 43 8 131q3 26 68 26q53 0 53 -18q0 -14 -12.5 -71t-18.5 -74q-8 -23 -56 -23zM232 179q0 -13 -12.5 -69t-18.5 -73q-8 -24 -55 -24q-43 0 -43 30q0 43 8 130q3 26 70 26q51 0 51 -20z" />
    <glyph glyph-name="semicolon" unicode=";" horiz-adv-x="357" 
d="M182 332q-42 0 -42 29q0 43 8 131q2 26 68 26q53 0 53 -18q0 -14 -12.5 -71t-18.5 -74q-8 -23 -56 -23zM124 -147q-20 0 -38 11.5t-18 30.5q0 17 15 46q20 40 48 112q31 81 44.5 111.5t51.5 30.5q23 0 46.5 -13t23.5 -35q0 -15 -59 -130q-51 -100 -74 -138
q-16 -26 -40 -26z" />
    <glyph glyph-name="less" unicode="&#x3c;" horiz-adv-x="725" 
d="M177 401q145 -94 415 -281q28 -19 83 -59q27 -22 27 -48q0 -19 -13 -45q-15 -31 -31 -31q-12 0 -61 41q-30 26 -61 53q-202 162 -403 269q-32 13 -91 45q-17 12 -17 32q0 23 14 53q16 35 36 33q113 99 431 353q30 25 91 72q20 14 37 14q20 0 48.5 -21.5t28.5 -40.5
q0 -10 -12 -21q-17 -15 -48 -34q-45 -27 -51 -31q-257 -174 -423 -353z" />
    <glyph glyph-name="equal" unicode="=" horiz-adv-x="756" 
d="M129 444q-29 0 -48.5 24.5t-19.5 53.5t22 33q8 1 95 4q62 2 94 4q52 4 93 12q22 3 113 32q87 27 93 27q22 0 41 -32q16 -29 16 -53q0 -22 -17 -28q-41 -15 -237 -46t-245 -31zM183 230q-28 0 -48.5 25t-20.5 54q0 28 24 32q8 1 85 4q67 3 99 5q54 4 97 12q22 3 114 31
q88 27 92 27q23 0 41 -33q17 -28 17 -53q0 -21 -17 -27q-42 -15 -237.5 -46t-245.5 -31z" />
    <glyph glyph-name="greater" unicode="&#x3e;" horiz-adv-x="769" 
d="M730 377q0 -20 -18 -32q-31 -15 -90 -45q-201 -106 -403 -270q-31 -26 -61 -52q-48 -41 -61 -41q-17 0 -31 30q-13 27 -13 46q0 26 26 48q4 3 84 59q271 188 415 281q-174 184 -424 353q-35 20 -99 65q-10 9 -10 20q0 24 26 42.5t50 18.5q19 0 37 -12q4 -3 92 -72
q171 -137 216 -174q122 -99 213 -179q20 2 37 -33q14 -30 14 -53z" />
    <glyph glyph-name="question" unicode="?" horiz-adv-x="795" 
d="M249 407l-14 -56q-11 -20 -50 -20q-49 0 -49 24q0 51 8 127q2 17 9.5 22t25.5 5q13 0 40.5 -1t41.5 -1q214 0 286 64q56 49 56 98q0 71 -91 118q-76 38 -154 38q-61 0 -125 -31q-38 -18 -93 -57q-43 -30 -53 -30q-17 0 -17 33q0 48 28 72q66 56 156.5 89t177.5 33
q120 0 220 -65q115 -73 115 -187q0 -69 -58 -126q-127 -127 -460 -149zM226 185q0 -8 -12.5 -54t-17.5 -57q-8 -19 -55 -19q-44 0 -44 24q0 2 1 7q4 44 7 88q6 26 69 26q52 0 52 -15z" />
    <glyph glyph-name="at" unicode="@" horiz-adv-x="996" 
d="M932 493q0 -125 -72 -249.5t-186 -202.5q-121 -81 -248 -81q-155 0 -262.5 109.5t-107.5 264.5q0 125 72 250t185 203q120 82 247 82q154 0 263 -110.5t109 -265.5zM800 430q0 126 -72 223q-78 106 -201 106q-77 0 -160 -49q-188 -112 -188 -324q0 -127 71 -223
q78 -107 201 -107q77 0 159 49q190 112 190 325zM684 356q0 -100 -72 -158q-67 -53 -170 -53q-62 0 -102 25q-49 29 -49 87q0 64 64 155.5t174 91.5q33 0 72 -8q-5 35 -20 49.5t-49 14.5q-29 0 -83 -11t-75 -11q-19 0 -34.5 18.5t-15.5 38.5q0 21 36 31q96 26 187 26
q59 0 81 -17q33 -26 44 -104q4 -59 9 -118q3 -40 3 -57zM523 418q-35 0 -94 -42q-62 -44 -62 -77q0 -28 36 -47q30 -17 61 -17q45 0 85 27q45 29 45 73q0 27 -22 55t-49 28z" />
    <glyph glyph-name="A" unicode="A" horiz-adv-x="836" 
d="M803 99q0 -26 -27.5 -48t-54.5 -22q-15 0 -24 11q-16 19 -33 58q-13 32 -26 63q-184 -45 -463 -96q-11 -25 -23 -50q-17 -32 -38 -32q-28 0 -53 33.5t-25 61.5q0 15 26 57q19 29 37 57q93 166 214 495q14 36 39 109q16 52 77 52q29 0 42 -27q16 -44 48 -131
q104 -274 222 -477l36 -58q26 -43 26 -56zM584 287q-53 128 -163 383q-40 -91 -96 -235q-78 -201 -92 -237q193 31 351 89z" />
    <glyph glyph-name="B" unicode="B" horiz-adv-x="806" 
d="M286 2q-100 0 -142 8q-22 4 -31 23q-15 30 -23 455q-4 -1 -8 -1q-22 0 -35 28q-9 22 -9 47q0 26 17 54q5 6 36 45q74 90 145 132q83 49 188 49q119 0 196 -61q82 -67 82 -183q0 -119 -156 -212q74 -21 129 -67q69 -55 69 -121q0 -101 -176 -160q-105 -36 -282 -36z
M606 587q0 60 -71 98q-60 32 -126 32q-107 0 -217 -112q-2 -59 -2 -118q0 -48 1 -96q279 7 360 89q55 55 55 107zM385 302q-104 0 -186 -61q6 -62 14 -116q109 -8 188 -8q156 0 202 29q43 26 43 50q0 49 -109 81q-85 25 -152 25z" />
    <glyph glyph-name="C" unicode="C" horiz-adv-x="786" 
d="M764 243q0 -14 -7 -22q-18 -17 -69 -54q-224 -160 -404 -160q-119 0 -186 84q-62 77 -62 198q0 232 183 396q177 158 413 158q29 0 44 -6q18 -9 18 -39v-31q0 -24 11.5 -61.5t11.5 -49.5q0 -19 -34 -41.5t-55 -22.5q-15 0 -22.5 15.5t-14.5 45.5q-8 38 -11 47
q-228 -35 -344 -169q-104 -120 -104 -226q0 -81 64 -128q57 -41 143 -41q69 0 167 40q61 26 152 76q74 41 83 41q23 0 23 -50z" />
    <glyph glyph-name="D" unicode="D" horiz-adv-x="867" 
d="M116 3q-19 0 -25 18q-10 27 -20 496q-18 22 -18 56q0 25 13 43.5t50 55.5q75 73 164 117q99 48 195 48q140 0 238.5 -100t98.5 -240q0 -184 -181 -314q-143 -103 -351 -146q-36 -5 -107 -20q-49 -14 -57 -14zM194 135q183 17 311 83q175 91 175 247q0 103 -76.5 175
t-179.5 72q-130 0 -251 -114q-4 -67 -4 -130q0 -177 25 -333z" />
    <glyph glyph-name="E" unicode="E" horiz-adv-x="752" 
d="M170 366q4 -124 22 -240h9q92 -1 207 22q46 9 204 47q20 5 32 5q38 0 38 -33q0 -21 -15.5 -47t-34.5 -36q-84 -43 -213 -70q-118 -24 -222 -24q-50 0 -59 2q-34 5 -46.5 30t-20.5 321q-40 14 -40 63q0 43 36 58h1q-1 18 -3 115q-1 71 -1 116q0 33 1 40q4 20 22 33
q14 10 50 20q61 20 122.5 40t134.5 20q91 0 127 -7q24 -5 50 -34.5t26 -53.5q0 -34 -60 -38q-136 -9 -186 -18q-72 -14 -179 -59q-5 -68 -5 -143q226 66 438 66q27 0 38 -1q23 -2 53 -22q34 -22 34 -44q0 -27 -66 -34q-303 -30 -494 -94z" />
    <glyph glyph-name="F" unicode="F" horiz-adv-x="693" 
d="M163 366q2 -58 15 -155q16 -112 20 -154v-4q2 -22 -31 -37q-27 -12 -52 -12q-30 0 -34 19q-10 47 -16 317q-40 11 -40 65q0 48 37 57q-5 141 -5 206v53q4 29 24 44q13 10 50 20q61 20 121.5 40t134.5 20q92 0 128 -7q24 -5 50 -34t26 -53q0 -35 -61 -39q-137 -9 -186 -18
q-72 -14 -179 -59q-4 -72 -4 -140q206 63 399 63q26 0 36 -1q23 -3 50 -22q31 -22 31 -44q0 -8 -4 -14q-9 -15 -57 -20q-274 -29 -453 -91z" />
    <glyph glyph-name="G" unicode="G" horiz-adv-x="918" 
d="M308 0q-124 0 -193 85q-63 79 -63 206q0 230 184 391q177 156 411 156q45 0 55 -15q7 -10 7 -56q0 -25 11.5 -64t11.5 -51q0 -20 -33.5 -42.5t-54.5 -22.5q-20 0 -33 45l-16 64q-201 -31 -316 -142q-55 -53 -90 -115q-43 -74 -43 -139q0 -76 55 -122q51 -45 128 -45
q91 0 215 49t188 111q24 24 24 39q0 35 -84 35q-136 0 -368 -55q-25 -6 -37 -6q-29 0 -29 29q0 24 24.5 56t47.5 42q45 19 163 32q99 11 168 11q230 0 230 -97q0 -77 -132 -184q-240 -195 -431 -195z" />
    <glyph glyph-name="H" unicode="H" horiz-adv-x="744" 
d="M679 94q0 -25 -29 -40q-24 -13 -52 -13q-32 0 -37 22q-6 29 -7 87q-1 44 -1 89q-5 103 -8 198q-205 -28 -365 -88q5 -104 17 -194l2 -11q0 -5 9 -49q6 -30 6 -49q0 -20 -32 -35q-27 -13 -50 -13q-30 0 -35 20t-6 54q-1 28 -2 55l-22 284q-12 164 -12 284v38q2 30 33 50
q28 16 60 16q42 0 42 -33q0 -17 -2 -43q-4 -34 -4 -42q-7 -97 -7 -202q182 59 365 69q-2 136 -2 142v69q4 44 24 60q29 23 76 23q38 0 38 -28q0 6 -10 -89q-9 -86 -12 -176q24 -6 48 -25q28 -21 28 -42q0 -32 -78 -32v-28q-1 -124 12 -235q1 -8 8 -46q5 -30 5 -47z" />
    <glyph glyph-name="I" unicode="I" horiz-adv-x="608" 
d="M333 708q-9 -112 -9 -217q0 -189 27 -357q14 3 95 24q67 18 89 18q29 0 29 -24q0 -17 -15 -42t-30 -33q-71 -37 -180 -59q-100 -20 -189 -20q-51 0 -69 8q-30 14 -30 60q0 49 42 49q10 0 30.5 -1t30.5 -1q46 0 86 4q-13 186 -17 561l-64 -28q-47 -20 -61 -20
q-24 0 -39 31q-11 25 -11 53q0 54 36 72q141 70 297 70q76 0 105 -8q55 -15 77 -66q4 -12 4 -22q0 -11 -4 -19q-11 -17 -56 -19q-59 -3 -174 -14z" />
    <glyph glyph-name="J" unicode="J" horiz-adv-x="867" 
d="M807 615q0 -172 -49 -338q-34 -116 -128.5 -189t-215.5 -73q-128 0 -233 98q-55 52 -88 134q-30 76 -34 158v9q-3 55 61 55q37 0 45 -63q17 -135 89 -198q81 -71 180 -71q83 0 147 44q68 46 85 125q13 60 13 151q0 181 -30 252q-7 16 -46 16q-38 0 -105 -15.5t-88 -15.5
q-22 0 -22 29q0 76 50 93q83 28 224 28q39 0 62 -3q57 -8 69 -65q14 -68 14 -161z" />
    <glyph glyph-name="K" unicode="K" horiz-adv-x="729" 
d="M696 767q0 -15 -43 -51t-106 -96q-97 -92 -104 -99q-110 -102 -193 -184q157 -120 350 -208l46 -18q34 -16 34 -26q0 -20 -42 -38q-37 -16 -60 -16q-17 0 -218 69q-114 39 -196 104q2 -15 10 -65q6 -42 6 -64q0 -25 -28 -41q-24 -13 -52 -13q-32 0 -36.5 21t-4.5 55
q-1 28 -1 55q-16 344 -16 560q0 33 1 47q3 30 34 48q26 16 59 16q43 0 43 -28q0 -25 -5 -64q-7 -53 -8 -63q-11 -126 -11 -248l1 -2l2 -1q195 183 364 324q18 16 36 31q23 19 39.5 24t37.5 5q61 0 61 -34z" />
    <glyph glyph-name="L" unicode="L" horiz-adv-x="634" 
d="M159 16q-51 0 -62 2q-37 5 -48 31t-21 308q-7 223 -7 337q0 46 1 56q1 30 25 48t54 18q38 0 38 -27q0 -20 -3 -53q-5 -44 -5 -53q-7 -96 -7 -186q0 -190 26 -344h10q90 -1 183 16q5 1 226 53q19 5 32 5q39 0 39 -34q0 -22 -15.5 -47t-34.5 -35q-77 -41 -210 -69
q-124 -26 -221 -26z" />
    <glyph glyph-name="M" unicode="M" horiz-adv-x="1018" 
d="M978 105q0 -26 -26.5 -54t-51.5 -28q-12 0 -18 10q-20 34 -79 249q-33 121 -89 304q-51 -167 -91 -315q-64 -238 -82 -268q-10 -18 -24 -18q-25 0 -47 37q-20 34 -20 61q0 8 2 17q-22 68 -141 454q-83 -274 -149 -470q-8 -29 -29 -81q-10 -18 -24 -18q-24 0 -46 38
q-21 34 -21 60q0 14 17 51q12 26 24 53q34 83 71 197q66 202 105 381q11 52 54 52q22 0 37 -48q8 -35 16 -69q53 -203 147 -446q93 263 158 571q11 52 53 52q19 0 29 -26t19 -66q14 -66 14 -67q81 -322 147 -494q15 -34 42 -104q3 -8 3 -15z" />
    <glyph glyph-name="N" unicode="N" horiz-adv-x="827" 
d="M722 299q0 -71 3 -129q1 -11 5 -48q4 -30 4 -48q0 -26 -33 -39q-23 -9 -54 -9q-33 0 -32 21l-442 500q-6 -95 -6 -181q0 -140 14 -257q1 -6 7 -39q5 -25 5 -40q0 -26 -33 -41q-25 -11 -56 -11q-25 0 -29 22q0 1 -5 106q-16 328 -16 552q0 59 5 73q10 31 55 42q21 5 37 5
q25 0 37 -13l431 -501q4 121 12 265q3 90 17 269q7 59 85 59q34 0 34 -25q0 -26 -8 -69q-11 -59 -12 -69q-25 -194 -25 -395z" />
    <glyph glyph-name="O" unicode="O" horiz-adv-x="1040" 
d="M969 467q0 -194 -153 -336q-149 -138 -344 -138q-172 0 -290 113t-118 283q0 194 152 335q149 139 344 139q171 0 290 -113t119 -283zM822 421q0 135 -87 234q-90 103 -223 103q-132 0 -223 -104q-87 -99 -87 -233q0 -135 87 -233q91 -102 224 -102q131 0 222 103
q87 99 87 232z" />
    <glyph glyph-name="P" unicode="P" horiz-adv-x="736" 
d="M157 218q2 -18 14 -87q10 -60 10 -81q0 -24 -32 -39q-27 -13 -53 -13t-32 17q-12 34 -19 496q-17 22 -17 56q0 24 11 42q29 47 83 97.5t103 78.5q104 58 198 58q112 0 197 -70q90 -75 90 -185q0 -166 -203 -269q-144 -73 -350 -101zM584 558q0 70 -75 116q-65 41 -140 41
q-109 0 -222 -113q-3 -61 -3 -123q0 -74 4 -148q293 9 378 102q58 64 58 125z" />
    <glyph glyph-name="Q" unicode="Q" horiz-adv-x="995" 
d="M958 470q0 -183 -138 -325l54 -24q39 -19 39 -35t-17.5 -28t-34.5 -12q-20 0 -114 38q-128 -90 -285 -90q-174 0 -290.5 111.5t-116.5 285.5q0 190 151 333q149 139 341 139q171 0 290 -110q121 -113 121 -283zM733 199q80 96 80 219q0 131 -86 234q-91 107 -220 107
q-134 0 -226 -103q-89 -99 -89 -235q0 -135 87 -233q90 -102 223 -102q77 0 147 41q-95 46 -162 101q-97 80 -97 153q0 21 11 48q13 33 30 33q10 0 24 -15q114 -116 131 -132q67 -64 147 -116z" />
    <glyph glyph-name="R" unicode="R" horiz-adv-x="759" 
d="M604 105q0 -19 -17 -33t-36 -14q-64 0 -185 37q-112 34 -179 69q1 -13 10 -59q8 -39 8 -56q0 -24 -28 -38q-23 -11 -49 -11q-35 0 -40 20q-8 33 -11 111q-1 57 -2 115q-5 126 -7 257q-21 5 -36.5 27.5t-15.5 45.5t26 54q173 211 375 211q116 0 205 -70q96 -76 96 -189
q0 -136 -148 -232q-108 -70 -270 -106q75 -43 149 -73q57 -24 98 -35q17 -4 35 -8q22 -7 22 -23zM601 562q0 70 -72 116q-64 41 -138 41q-108 0 -221 -113q-3 -61 -3 -123q0 -74 4 -148q287 8 372 101q58 64 58 126z" />
    <glyph glyph-name="S" unicode="S" horiz-adv-x="880" 
d="M279 1q-68 0 -101 21q-50 32 -87 93.5t-37 119.5q0 46 25 46t46 -29q8 -16 30 -48q74 -87 220 -87q93 0 172 38q89 44 120 123q11 27 11 46q0 30 -32 40q-87 28 -246 38q-127 7 -254 13q-67 5 -77 50q-4 18 -4 38q0 13 3 21q24 61 83 129q52 59 114 104q147 107 352 107
q28 0 44.5 -7t17.5 -37q1 -20 10 -60t9 -53q0 -21 -34.5 -43t-56.5 -22q-16 0 -28 33q-1 1 -14 47q-13 1 -25 1q-192 0 -302 -141q-19 -24 -19 -33q0 -8 27 -11q19 -1 51 0q46 1 35 1q106 0 208 -11q66 -6 131 -12q81 -8 128 -21q34 -9 34 -77q0 -25 -5 -42
q-49 -162 -216 -271q-159 -104 -333 -104z" />
    <glyph glyph-name="T" unicode="T" horiz-adv-x="690" 
d="M390 699q-8 -111 -8 -211q0 -183 24 -346q0 -4 8 -45q6 -27 6 -45q0 -20 -32 -35q-27 -13 -51 -13q-30 0 -34 20q-1 5 -6 91q-12 205 -16 562q-10 -3 -93 -33q-69 -24 -84 -24q-29 0 -47 29q-15 24 -15 55q0 54 43 72q167 70 355 70q88 0 121 -7q69 -15 95 -67
q6 -13 6 -22q0 -10 -6 -19q-12 -17 -67 -19q-67 -2 -199 -13z" />
    <glyph glyph-name="U" unicode="U" horiz-adv-x="775" 
d="M708 75q0 -25 -30 -41q-24 -12 -52 -12q-32 0 -36 21q-3 14 -6 131q-77 -44 -148 -69q-232 -83 -298 -83q-46 0 -50 21q-5 18 -5 49v50q-19 392 -19 489q0 93 4 128q3 31 33 49q26 15 59 15q44 0 44 -28q0 -21 -5 -52q-6 -47 -7 -53q-13 -130 -13 -254q0 -239 16 -262
q5 -7 17 -7q42 0 182 57q115 46 184 82q-11 221 -11 323q0 95 4 130q3 30 32 48q26 16 58 16q46 0 46 -28q0 -26 -6 -68q-7 -56 -8 -68q-12 -128 -11 -235v-29q1 -93 14 -216q0 -5 7 -52q5 -32 5 -52z" />
    <glyph glyph-name="V" unicode="V" horiz-adv-x="689" 
d="M344 16q-65 0 -77 31q-23 56 -119 373q-100 330 -100 360q0 49 71 49q28 0 37 -27q7 -21 13 -55q8 -52 9 -57q54 -265 144 -486q39 116 90 255q31 94 104 276q20 42 64 42q65 0 65 -29q0 -11 -25 -61q-17 -33 -33 -65q-97 -211 -151 -468q-5 -37 -20 -108
q-10 -30 -72 -30z" />
    <glyph glyph-name="W" unicode="W" horiz-adv-x="1037" 
d="M717 24q-19 0 -29 28q-12 34 -40 135q-24 85 -45 135q-46 106 -83 204q-78 -219 -89 -253q-48 -143 -73 -257q-11 -51 -54 -51q-19 0 -28 27q-11 44 -33 131q-85 332 -150 502q-14 32 -39 96q-3 8 -3 15q0 26 27 54.5t52 28.5q11 0 17 -10q19 -33 44 -121q17 -64 34 -129
q32 -119 90 -304q41 140 73 224q23 59 68 178q36 99 80 99q18 0 31 -30q3 -8 14 -47q6 -21 60 -168q39 -105 77 -223q90 296 155 486q6 23 23 65q10 18 23 18q24 0 48 -38q21 -35 21 -61q0 -13 -18 -52l-24 -54q-35 -83 -71 -195q-65 -198 -105 -381q-11 -52 -53 -52z" />
    <glyph glyph-name="X" unicode="X" horiz-adv-x="709" 
d="M416 415q75 -95 143 -167q26 -23 74 -74q9 -12 9 -29q0 -25 -18 -56q-20 -34 -43 -34q-8 0 -15 6q-24 21 -53 59q-24 31 -47 63q-58 72 -107 137q-63 -107 -110 -205q-13 -31 -42 -91q-13 -23 -46 -23q-23 0 -47 12q-28 15 -28 37q0 15 201 365q-59 76 -118 151
q-68 89 -111 155q-15 23 -15 48q0 26 15 52q18 30 42 30q11 0 22 -13q21 -34 64 -102q80 -125 156 -225q40 69 89 151q30 53 96 154q21 29 58 29q26 0 53 -15q30 -18 30 -43q0 -8 -5 -17q-16 -20 -46 -61q-98 -130 -201 -294z" />
    <glyph glyph-name="Y" unicode="Y" horiz-adv-x="786" 
d="M258 3q-24 0 -48 12q-28 15 -28 37q0 6 148 274q-63 83 -137 181q-49 62 -142 191q-16 26 -16 48q0 21 19.5 52.5t38.5 31.5q11 0 22 -15q16 -24 45 -72q107 -172 225 -321q78 137 166 281q22 40 71 115q22 29 59 29q26 0 52 -15q31 -18 31 -43q0 -14 -45 -73l-58 -76
q-183 -254 -304 -500q-18 -42 -36 -85q-26 -52 -63 -52z" />
    <glyph glyph-name="Z" unicode="Z" horiz-adv-x="770" 
d="M752 124q0 -20 -20.5 -40t-41.5 -26q-159 -45 -395 -45q-120 0 -189 11q-27 4 -48.5 26t-21.5 48q0 15 10 31q1 1 69 89l139 179q115 147 244 301q-25 1 -49 1q-159 0 -291 -33q-15 -4 -23 -4q-25 0 -43 23t-18 49q0 15 6 29q9 23 42 34q120 40 270 40q101 0 176 -15
q127 -25 127 -86q0 -22 -19 -46q-16 -20 -46 -48q-43 -40 -49 -46q-223 -227 -382 -464q53 -4 110 -4q109 0 360 26q20 2 32 2q51 0 51 -32z" />
    <glyph glyph-name="bracketleft" unicode="[" horiz-adv-x="468" 
d="M241 -114h-79q-52 1 -77.5 1t-39.5 29q-12 23 -12 50q0 15 4 25q-20 467 -20 704q0 137 0 122q2 83 15.5 117t50.5 34q27 0 79 1h79q178 0 217 -11q16 -4 16 -35q0 -25 -9 -50q-11 -32 -32 -32q-15 0 -64 12q-56 13 -71 15q-22 3 -46 3q-37 0 -102 -8q-19 -223 -19 -418
q0 -76 12.5 -225.5t12.5 -224.5v-4q60 -6 94 -6q27 0 51 3q13 2 68 14q48 11 64 11q21 0 32 -32q9 -24 9 -49q0 -31 -16 -35q-39 -11 -217 -11z" />
    <glyph glyph-name="backslash" unicode="\" horiz-adv-x="707" 
d="M691 39q0 -19 -32 -32q-26 -10 -48 -10q-27 0 -45 26q-20 37 -60 109q-146 252 -359 519l-66 78q-52 63 -52 78q0 23 29 38q24 13 50 13q41 0 67 -31q9 -11 84 -120q97 -139 194 -288l156 -244q28 -38 77 -119q5 -10 5 -17z" />
    <glyph glyph-name="bracketright" unicode="]" horiz-adv-x="594" 
d="M521 707q0 -186 -20 -716q3 -10 3 -23q0 -27 -11 -51q-14 -30 -38 -30h-78q-52 -1 -78 -1q-182 0 -219 11q-15 4 -15 36q0 26 8 49q11 31 32 31q17 0 64 -11q55 -12 68 -14q25 -3 51 -3q35 0 94 6v4q0 75 12 222t12 222q0 198 -18 424q-66 8 -102 8q-24 0 -47 -3
q-15 -2 -70 -15q-49 -12 -64 -12q-21 0 -32 32q-8 23 -8 48q0 33 15 37q37 11 217 11h79q53 -1 79 -1q37 0 50.5 -33.5t15.5 -111.5q0 13 0 -116z" />
    <glyph glyph-name="underscore" unicode="_" horiz-adv-x="813" 
d="M472 -123q-217 0 -349 7q-82 4 -82 85q0 33 33 32h4q50 -1 175 -13q112 -11 176 -10h19q54 0 187 15q76 9 84 9q29 0 48 -25.5t19 -55.5q0 -32 -28 -36q-7 -1 -73 -4q-98 -4 -213 -4z" />
    <glyph glyph-name="a" unicode="a" horiz-adv-x="836" 
d="M803 99q0 -26 -27.5 -48t-54.5 -22q-15 0 -24 11q-16 19 -33 58q-13 32 -26 63q-184 -45 -463 -96q-11 -25 -23 -50q-17 -32 -38 -32q-28 0 -53 33.5t-25 61.5q0 15 26 57q19 29 37 57q93 166 214 495q14 36 39 109q16 52 77 52q29 0 42 -27q16 -44 48 -131
q104 -274 222 -477l36 -58q26 -43 26 -56zM584 287q-53 128 -163 383q-40 -91 -96 -235q-78 -201 -92 -237q193 31 351 89z" />
    <glyph glyph-name="b" unicode="b" horiz-adv-x="803" 
d="M286 2q-98 0 -141 8q-23 4 -32 23q-15 30 -23 455q-4 -1 -8 -1q-22 0 -35 28q-9 22 -9 47q0 26 17 54q5 6 36 45q74 90 145 132q83 49 188 49q119 0 196 -61q82 -67 82 -183q0 -119 -156 -212q74 -21 129 -67q69 -55 69 -121q0 -101 -176 -160q-105 -36 -282 -36z
M606 587q0 60 -71 98q-60 32 -126 32q-107 0 -217 -112q-2 -59 -2 -118q0 -48 1 -96q279 7 360 89q55 55 55 107zM385 302q-104 0 -186 -61q6 -62 14 -116q109 -8 188 -8q156 0 202 29q43 26 43 50q0 49 -109 81q-85 25 -152 25z" />
    <glyph glyph-name="c" unicode="c" horiz-adv-x="786" 
d="M764 243q0 -14 -7 -22q-18 -17 -69 -54q-224 -160 -404 -160q-119 0 -186 84q-62 77 -62 198q0 232 183 396q177 158 413 158q29 0 44 -6q18 -9 18 -39v-31q0 -24 11.5 -61.5t11.5 -49.5q0 -19 -34 -41.5t-55 -22.5q-15 0 -22.5 15.5t-14.5 45.5q-8 38 -11 47
q-228 -35 -344 -169q-104 -120 -104 -226q0 -81 64 -128q57 -41 143 -41q69 0 167 40q61 26 152 76q74 41 83 41q23 0 23 -50z" />
    <glyph glyph-name="d" unicode="d" horiz-adv-x="868" 
d="M116 3q-19 0 -25 18q-10 27 -20 496q-18 22 -18 56q0 25 13 43.5t50 55.5q75 73 164 117q99 48 195 48q140 0 238.5 -100t98.5 -240q0 -184 -181 -314q-143 -103 -351 -146q-36 -5 -107 -20q-49 -14 -57 -14zM194 135q183 17 311 83q175 91 175 247q0 103 -76.5 175
t-179.5 72q-130 0 -251 -114q-4 -67 -4 -130q0 -177 25 -333z" />
    <glyph glyph-name="e" unicode="e" horiz-adv-x="752" 
d="M170 366q4 -124 22 -240h9q92 -1 207 22q46 9 204 47q20 5 32 5q38 0 38 -33q0 -21 -15.5 -47t-34.5 -36q-84 -43 -213 -70q-118 -24 -222 -24q-50 0 -59 2q-34 5 -46.5 30t-20.5 321q-40 14 -40 63q0 43 36 58h1q-1 18 -3 115q-1 71 -1 116q0 33 1 40q4 20 22 33
q14 10 50 20q61 20 122.5 40t134.5 20q91 0 127 -7q24 -5 50 -34.5t26 -53.5q0 -34 -60 -38q-136 -9 -186 -18q-72 -14 -179 -59q-5 -68 -5 -143q226 66 438 66q27 0 38 -1q23 -2 53 -22q34 -22 34 -44q0 -27 -66 -34q-303 -30 -494 -94z" />
    <glyph glyph-name="f" unicode="f" horiz-adv-x="693" 
d="M163 366q2 -58 15 -155q16 -112 20 -154v-4q2 -22 -31 -37q-27 -12 -52 -12q-30 0 -34 19q-10 47 -16 317q-40 11 -40 65q0 48 37 57q-5 141 -5 206v53q4 29 24 44q13 10 50 20q61 20 121.5 40t134.5 20q92 0 128 -7q24 -5 50 -34t26 -53q0 -35 -61 -39q-137 -9 -186 -18
q-72 -14 -179 -59q-4 -72 -4 -140q206 63 399 63q26 0 36 -1q23 -3 50 -22q31 -22 31 -44q0 -8 -4 -14q-9 -15 -57 -20q-274 -29 -453 -91z" />
    <glyph glyph-name="g" unicode="g" horiz-adv-x="904" 
d="M294 0q-124 0 -193 85q-63 79 -63 206q0 230 184 391q178 156 411 156q45 0 56 -15q6 -10 6 -56q0 -25 11.5 -64t11.5 -51q0 -20 -33 -42.5t-54 -22.5t-34 45l-16 64q-201 -31 -316 -142q-54 -53 -90 -115q-42 -74 -42 -139q0 -76 53 -121.5t130 -45.5q90 0 214 49
t188 111q25 24 25 39q0 35 -84 35q-136 0 -369 -55q-25 -6 -36 -6q-30 0 -30 29q0 24 24.5 56t47.5 42q45 19 164 32q99 11 168 11q229 0 229 -97q0 -77 -131 -184q-240 -195 -432 -195z" />
    <glyph glyph-name="h" unicode="h" horiz-adv-x="744" 
d="M679 94q0 -25 -29 -40q-24 -13 -52 -13q-32 0 -37 22q-6 29 -7 87q-1 44 -1 89q-5 103 -8 198q-205 -28 -365 -88q5 -104 17 -194l2 -11q0 -5 9 -49q6 -30 6 -49q0 -20 -32 -35q-27 -13 -50 -13q-30 0 -35 20t-6 54q-1 28 -2 55l-22 284q-12 164 -12 284v38q2 30 33 50
q28 16 60 16q42 0 42 -33q0 -17 -2 -43q-4 -34 -4 -42q-7 -97 -7 -202q182 59 365 69q-2 136 -2 142v69q4 44 24 60q29 23 76 23q38 0 38 -28q0 6 -10 -89q-9 -86 -12 -176q24 -6 48 -25q28 -21 28 -42q0 -32 -78 -32v-28q-1 -124 12 -235q1 -8 8 -46q5 -30 5 -47z" />
    <glyph glyph-name="i" unicode="i" horiz-adv-x="290" 
d="M223 69q0 -21 -31 -36q-26 -12 -49 -12q-34 0 -38 21t-4 54q-1 26 -1 53q-15 334 -15 556q0 38 1 54q3 30 34 48q26 15 58 15q44 0 44 -27q0 -26 -5 -68q-8 -56 -9 -68q-11 -122 -11 -234q0 -141 13 -258q1 -8 8 -49q5 -30 5 -49z" />
    <glyph glyph-name="j" unicode="j" horiz-adv-x="867" 
d="M807 615q0 -172 -49 -338q-34 -116 -128.5 -189t-215.5 -73q-128 0 -233 98q-55 52 -88 134q-30 76 -34 158v9q-3 55 61 55q37 0 45 -63q17 -135 89 -198q81 -71 180 -71q83 0 147 44q68 46 85 125q13 60 13 151q0 181 -30 252q-7 16 -46 16q-38 0 -105 -15.5t-88 -15.5
q-22 0 -22 29q0 76 50 93q83 28 224 28q39 0 62 -3q57 -8 69 -65q14 -68 14 -161z" />
    <glyph glyph-name="k" unicode="k" horiz-adv-x="729" 
d="M696 767q0 -15 -43 -51t-106 -96q-97 -92 -104 -99q-110 -102 -193 -184q157 -120 350 -208l46 -18q34 -16 34 -26q0 -20 -42 -38q-37 -16 -60 -16q-17 0 -218 69q-114 39 -196 104q2 -15 10 -65q6 -42 6 -64q0 -25 -28 -41q-24 -13 -52 -13q-32 0 -36.5 21t-4.5 55
q-1 28 -1 55q-16 344 -16 560q0 33 1 47q3 30 34 48q26 16 59 16q43 0 43 -28q0 -25 -5 -64q-7 -53 -8 -63q-11 -126 -11 -248l1 -2l2 -1q195 183 364 324q18 16 36 31q23 19 39.5 24t37.5 5q61 0 61 -34z" />
    <glyph glyph-name="l" unicode="l" horiz-adv-x="623" 
d="M158 16q-51 0 -62 2q-36 5 -47.5 31t-20.5 308q-8 223 -8 337q0 46 1 56q2 30 25.5 48t53.5 18q38 0 38 -27q0 -20 -3 -53q-5 -44 -5 -53q-7 -96 -7 -186q0 -190 26 -344h11q89 -1 182 16q5 1 226 53q19 5 32 5q39 0 39 -34q0 -22 -15.5 -47t-34.5 -35q-77 -41 -210 -69
q-124 -26 -221 -26z" />
    <glyph glyph-name="m" unicode="m" horiz-adv-x="1018" 
d="M978 105q0 -26 -26.5 -54t-51.5 -28q-12 0 -18 10q-20 34 -79 249q-33 121 -89 304q-51 -167 -91 -315q-64 -238 -82 -268q-10 -18 -24 -18q-25 0 -47 37q-20 34 -20 61q0 8 2 17q-22 68 -141 454q-83 -274 -149 -470q-8 -29 -29 -81q-10 -18 -24 -18q-24 0 -46 38
q-21 34 -21 60q0 14 17 51q12 26 24 53q34 83 71 197q66 202 105 381q11 52 54 52q22 0 37 -48q8 -35 16 -69q53 -203 147 -446q93 263 158 571q11 52 53 52q19 0 29 -26t19 -66q14 -66 14 -67q81 -322 147 -494q15 -34 42 -104q3 -8 3 -15z" />
    <glyph glyph-name="n" unicode="n" horiz-adv-x="827" 
d="M722 299q0 -71 3 -129q1 -11 5 -48q4 -30 4 -48q0 -26 -33 -39q-23 -9 -54 -9q-33 0 -32 21l-442 500q-6 -95 -6 -181q0 -140 14 -257q1 -6 7 -39q5 -25 5 -40q0 -26 -33 -41q-25 -11 -56 -11q-25 0 -29 22q0 1 -5 106q-16 328 -16 552q0 59 5 73q10 31 55 42q21 5 37 5
q25 0 37 -13l431 -501q4 121 12 265q3 90 17 269q7 59 85 59q34 0 34 -25q0 -26 -8 -69q-11 -59 -12 -69q-25 -194 -25 -395z" />
    <glyph glyph-name="o" unicode="o" horiz-adv-x="1033" 
d="M969 467q0 -194 -153 -336q-149 -138 -344 -138q-172 0 -290 113t-118 283q0 194 152 335q149 139 344 139q171 0 290 -113t119 -283zM822 421q0 135 -87 234q-90 103 -223 103q-132 0 -223 -104q-87 -99 -87 -233q0 -135 87 -233q91 -102 224 -102q131 0 222 103
q87 99 87 232z" />
    <glyph glyph-name="p" unicode="p" horiz-adv-x="720" 
d="M157 218q2 -18 14 -87q10 -60 10 -81q0 -24 -32 -39q-27 -13 -53 -13t-32 17q-12 34 -19 496q-17 22 -17 56q0 24 11 42q29 47 83 97.5t103 78.5q104 58 198 58q112 0 197 -70q90 -75 90 -185q0 -166 -203 -269q-144 -73 -350 -101zM584 558q0 70 -75 116q-65 41 -140 41
q-109 0 -222 -113q-3 -61 -3 -123q0 -74 4 -148q293 9 378 102q58 64 58 125z" />
    <glyph glyph-name="q" unicode="q" horiz-adv-x="995" 
d="M958 470q0 -183 -138 -325l54 -24q39 -19 39 -35t-17.5 -28t-34.5 -12q-20 0 -114 38q-128 -90 -285 -90q-174 0 -290.5 111.5t-116.5 285.5q0 190 151 333q149 139 341 139q171 0 290 -110q121 -113 121 -283zM733 199q80 96 80 219q0 131 -86 234q-91 107 -220 107
q-134 0 -226 -103q-89 -99 -89 -235q0 -135 87 -233q90 -102 223 -102q77 0 147 41q-95 46 -162 101q-97 80 -97 153q0 21 11 48q13 33 30 33q10 0 24 -15q114 -116 131 -132q67 -64 147 -116z" />
    <glyph glyph-name="r" unicode="r" horiz-adv-x="759" 
d="M604 105q0 -19 -17 -33t-36 -14q-64 0 -185 37q-112 34 -179 69q1 -13 10 -59q8 -39 8 -56q0 -24 -28 -38q-23 -11 -49 -11q-35 0 -40 20q-8 33 -11 111q-1 57 -2 115q-5 126 -7 257q-21 5 -36.5 27.5t-15.5 45.5t26 54q173 211 375 211q116 0 205 -70q96 -76 96 -189
q0 -136 -148 -232q-108 -70 -270 -106q75 -43 149 -73q57 -24 98 -35q17 -4 35 -8q22 -7 22 -23zM601 562q0 70 -72 116q-64 41 -138 41q-108 0 -221 -113q-3 -61 -3 -123q0 -74 4 -148q287 8 372 101q58 64 58 126z" />
    <glyph glyph-name="s" unicode="s" horiz-adv-x="871" 
d="M269 1q-67 0 -100 21q-51 32 -87.5 94t-36.5 119q0 46 25 46q24 0 46 -29q8 -16 29 -48q74 -87 221 -87q93 0 171 38q89 44 121 123q10 27 10 46q0 30 -31 40q-87 28 -247 38q-127 7 -253 13q-67 5 -77 50q-5 18 -5 38q0 13 4 21q23 61 83 129q52 59 114 104
q147 107 352 107q28 0 44.5 -7t17.5 -37q0 -20 9 -60t9 -53q0 -21 -34 -43t-57 -22q-15 0 -28 33q0 1 -13 47q-13 1 -26 1q-192 0 -301 -141q-19 -24 -19 -33q0 -8 26 -11q19 -1 52 0q45 1 35 1q106 0 208 -11q65 -6 131 -12q81 -8 128 -21q34 -9 34 -77q0 -25 -5 -42
q-49 -162 -216 -271q-159 -104 -334 -104z" />
    <glyph glyph-name="t" unicode="t" horiz-adv-x="690" 
d="M390 699q-8 -111 -8 -211q0 -183 24 -346q0 -4 8 -45q6 -27 6 -45q0 -20 -32 -35q-27 -13 -51 -13q-30 0 -34 20q-1 5 -6 91q-12 205 -16 562q-10 -3 -93 -33q-69 -24 -84 -24q-29 0 -47 29q-15 24 -15 55q0 54 43 72q167 70 355 70q88 0 121 -7q69 -15 95 -67
q6 -13 6 -22q0 -10 -6 -19q-12 -17 -67 -19q-67 -2 -199 -13z" />
    <glyph glyph-name="u" unicode="u" horiz-adv-x="775" 
d="M708 75q0 -25 -30 -41q-24 -12 -52 -12q-32 0 -36 21q-3 14 -6 131q-77 -44 -148 -69q-232 -83 -298 -83q-46 0 -50 21q-5 18 -5 49v50q-19 392 -19 489q0 93 4 128q3 31 33 49q26 15 59 15q44 0 44 -28q0 -21 -5 -52q-6 -47 -7 -53q-13 -130 -13 -254q0 -239 16 -262
q5 -7 17 -7q42 0 182 57q115 46 184 82q-11 221 -11 323q0 95 4 130q3 30 32 48q26 16 58 16q46 0 46 -28q0 -26 -6 -68q-7 -56 -8 -68q-12 -128 -11 -235v-29q1 -93 14 -216q0 -5 7 -52q5 -32 5 -52z" />
    <glyph glyph-name="v" unicode="v" horiz-adv-x="689" 
d="M344 16q-65 0 -77 31q-23 56 -119 373q-100 330 -100 360q0 49 71 49q28 0 37 -27q7 -21 13 -55q8 -52 9 -57q54 -265 144 -486q39 116 90 255q31 94 104 276q20 42 64 42q65 0 65 -29q0 -11 -25 -61q-17 -33 -33 -65q-97 -211 -151 -468q-5 -37 -20 -108
q-10 -30 -72 -30z" />
    <glyph glyph-name="w" unicode="w" horiz-adv-x="1037" 
d="M717 24q-19 0 -29 28q-12 34 -40 135q-24 85 -45 135q-46 106 -83 204q-78 -219 -89 -253q-48 -143 -73 -257q-11 -51 -54 -51q-19 0 -28 27q-11 44 -33 131q-85 332 -150 502q-14 32 -39 96q-3 8 -3 15q0 26 27 54.5t52 28.5q11 0 17 -10q19 -33 44 -121q17 -64 34 -129
q32 -119 90 -304q41 140 73 224q23 59 68 178q36 99 80 99q18 0 31 -30q3 -8 14 -47q6 -21 60 -168q39 -105 77 -223q90 296 155 486q6 23 23 65q10 18 23 18q24 0 48 -38q21 -35 21 -61q0 -13 -18 -52l-24 -54q-35 -83 -71 -195q-65 -198 -105 -381q-11 -52 -53 -52z" />
    <glyph glyph-name="x" unicode="x" horiz-adv-x="689" 
d="M414 415q75 -95 143 -167q26 -23 74 -74q9 -12 9 -29q0 -25 -18 -56q-20 -34 -43 -34q-8 0 -15 6q-24 21 -53 59q-23 31 -47 63q-58 72 -107 137q-62 -107 -110 -205q-13 -31 -42 -91q-13 -23 -45 -23q-24 0 -48 12q-28 15 -28 37q0 15 201 365q-59 76 -117 151
q-68 89 -112 155q-15 23 -15 48q0 26 15 52q18 30 42 30q12 0 22 -13q21 -34 64 -102q80 -125 156 -225q40 69 89 151q30 53 96 154q21 29 58 29q26 0 53 -15q30 -18 30 -43q0 -8 -5 -17q-16 -20 -46 -61q-98 -130 -201 -294z" />
    <glyph glyph-name="y" unicode="y" horiz-adv-x="783" 
d="M255 3q-24 0 -48 12q-28 15 -28 37q0 6 149 274q-64 83 -138 181q-49 62 -141 191q-17 26 -17 48q0 21 19.5 52.5t38.5 31.5q11 0 23 -15q15 -24 44 -72q107 -172 226 -321q78 137 165 281q23 40 72 115q21 29 58 29q26 0 53 -15q30 -18 30 -43q0 -14 -45 -73l-58 -76
q-182 -254 -304 -500q-18 -42 -36 -85q-26 -52 -63 -52z" />
    <glyph glyph-name="z" unicode="z" horiz-adv-x="770" 
d="M752 124q0 -20 -20.5 -40t-41.5 -26q-159 -45 -395 -45q-120 0 -189 11q-27 4 -48.5 26t-21.5 48q0 15 10 31q1 1 69 89l139 179q115 147 244 301q-25 1 -49 1q-159 0 -291 -33q-15 -4 -23 -4q-25 0 -43 23t-18 49q0 15 6 29q9 23 42 34q120 40 270 40q101 0 176 -15
q127 -25 127 -86q0 -22 -19 -46q-16 -20 -46 -48q-43 -40 -49 -46q-223 -227 -382 -464q53 -4 110 -4q109 0 360 26q20 2 32 2q51 0 51 -32z" />
    <glyph glyph-name="braceleft" unicode="{" horiz-adv-x="782" 
d="M749 706q0 -21 -26 -52t-47 -31q-6 0 -10 4q-40 36 -127 102q-45 27 -139 64q-22 7 -61 24q-10 5 -10 17q0 24 25 50t49 26q21 0 168 -85q137 -80 173 -107q5 -4 5 -12zM647 457q0 -28 -13 -52q-16 -28 -41 -28q-4 0 -69 8q-105 13 -158 13q-70 0 -211 -18
q-91 -11 -99 -11q-32 0 -32 39q0 31 19 54t50 26l171 6q143 5 219 5q117 0 140.5 -4t23.5 -38zM438 -84q-20 0 -38 31q-15 27 -15 49q0 21 14 33q35 32 157 123q134 101 150 101q19 0 38 -36q18 -32 18 -53q0 -14 -9 -20q-3 -1 -41 -19q-71 -34 -103 -56q-36 -25 -83 -72
q-63 -64 -77 -77q-6 -4 -11 -4z" />
    <glyph glyph-name="bar" unicode="|" horiz-adv-x="260" 
d="M198 -34q0 -29 -31 -48q-26 -16 -58 -16q-24 0 -28.5 27t-5.5 67v66q-16 437 -16 722q0 50 2 70q3 35 29.5 59t61.5 24q45 0 45 -37q0 -34 -6 -87q-7 -72 -8 -88q-11 -159 -11 -303q0 -176 12 -323q2 -13 9 -66q5 -41 5 -67z" />
    <glyph glyph-name="braceright" unicode="}" horiz-adv-x="762" 
d="M85 571q-19 0 -38 36q-17 32 -17 54q0 14 9 20q3 2 39 19t104 56q36 26 83 73q69 68 79 77q5 4 10 4q20 0 37 -32q16 -28 16 -49q0 -20 -14 -33q-34 -32 -157 -124q-134 -101 -151 -101zM736 455q33 0 33 -39q0 -31 -19 -53.5t-50 -25.5q-10 -1 -101 -5q-138 -7 -248 -7
q-156 0 -181.5 4.5t-25.5 37.5q0 28 13 52q16 29 42 29q5 0 68 -8q106 -14 158 -14q72 0 211 17q93 12 100 12zM463 -8q0 -24 -25.5 -50.5t-49.5 -26.5q-21 0 -168 85q-137 80 -172 107q-6 5 -6 13q0 21 27 51.5t47 30.5q6 0 11 -4q39 -37 125 -102q49 -30 147 -68
q19 -6 55 -21q9 -5 9 -15z" />
    <glyph glyph-name="asciitilde" unicode="~" horiz-adv-x="710" 
d="M474 353q-45 0 -130 38t-114 38q-34 0 -71 -37.5t-46 -37.5q-19 0 -31 34q-9 26 -9 51q0 26 10 39q50 67 110 67q38 0 122 -37t128 -37q41 0 86 44.5t47 44.5q17 0 31 -37q11 -31 11 -53q0 -35 -53 -76t-91 -41z" />
    <glyph glyph-name="dieresis" unicode="&#xa8;" 
 />
    <glyph glyph-name="copyright" unicode="&#xa9;" horiz-adv-x="986" 
d="M931 498q0 -126 -72.5 -250.5t-186.5 -201.5q-120 -82 -247 -82q-155 0 -263 109.5t-108 264.5q0 126 72 251t185 203q121 82 247 82q155 0 264 -111t109 -265zM799 433q0 127 -72 224q-78 107 -201 107q-77 0 -160 -49q-188 -111 -188 -324q0 -127 71 -224
q79 -107 201 -107q78 0 160 50q189 112 189 323zM408 188q-61 0 -100 30q-44 34 -44 93q0 80 95 216q33 47 78 78q52 35 102 35t91 -39q60 -57 60 -83q0 -17 -22 -29t-40 -12q-16 0 -44 27t-61 27q-44 0 -99.5 -53.5t-55.5 -96.5q0 -50 40 -76q34 -22 87 -22q56 0 102.5 40
t86.5 40q13 0 13 -9q0 -3 -2 -9q-27 -65 -122 -113q-88 -44 -165 -44z" />
    <glyph glyph-name="registered" unicode="&#xae;" horiz-adv-x="990" 
d="M935 498q0 -126 -72 -250.5t-186 -201.5q-121 -82 -248 -82q-154 0 -262.5 109.5t-108.5 264.5q0 126 72 251t185 203q121 82 247 82q155 0 264 -110.5t109 -265.5zM803 434q0 127 -72 223q-78 106 -201 106q-77 0 -159 -48q-90 -52 -139.5 -137t-49.5 -188
q0 -127 72 -223q78 -107 200 -107q78 0 160 50q189 113 189 324zM483 313l147 -78q32 -17 32 -33q0 -14 -23 -14q-14 0 -31 6l-223 82q1 -6 8 -45q5 -28 5 -45q0 -13 -15.5 -20.5t-29.5 -7.5q-22 0 -25 13q-10 50 -12 156q-1 81 -1 162q-23 -32 -32 -32q-13 0 -23.5 15
t-10.5 29q0 18 38 59q91 101 195 101q83 0 143 -38q70 -45 70 -123q0 -80 -69 -129q-49 -33 -143 -58zM626 489q0 43 -48 73q-42 27 -88 27q-54 0 -111 -40q-3 -50 -3 -99q0 -41 2 -81l12 -7q158 7 204 58q32 34 32 69z" />
    <glyph glyph-name="Ograve" unicode="&#xd2;" 
 />
    <glyph glyph-name="Oacute" unicode="&#xd3;" 
 />
    <glyph glyph-name="Ocircumflex" unicode="&#xd4;" 
 />
    <glyph glyph-name="Otilde" unicode="&#xd5;" 
 />
    <glyph glyph-name="quoteleft" unicode="&#x2018;" horiz-adv-x="401" 
d="M333 639q0 -20 -17.5 -31.5t-38.5 -11.5q-24 0 -40 26q-21 35 -73 138q-59 116 -59 132q0 21 25 35q21 12 44 12q38 0 51 -29q28 -76 93 -225q15 -29 15 -46z" />
    <glyph glyph-name="quoteright" unicode="&#x2019;" horiz-adv-x="323" 
d="M140 596q-21 0 -38.5 11.5t-17.5 31.5q0 16 15 46q20 40 47 112q32 82 45.5 112t50.5 30q23 0 46.5 -13t23.5 -35q0 -14 -59 -131q-53 -105 -73 -138q-16 -26 -40 -26z" />
    <glyph glyph-name="quotedblleft" unicode="&#x201c;" horiz-adv-x="553" 
d="M490 643q0 -20 -17.5 -31.5t-37.5 -11.5q-24 0 -41 27q-21 35 -74 138q-59 117 -59 132q0 21 25 35q21 12 45 12q38 0 51 -30q28 -76 93 -225q15 -29 15 -46zM307 582q0 -19 -17.5 -30.5t-38.5 -11.5q-24 0 -40 26q-20 33 -73 138q-59 117 -59 132q0 21 25 35
q21 12 44 12q38 0 51 -30q28 -76 93 -225q15 -29 15 -46z" />
    <glyph glyph-name="quotedblright" unicode="&#x201d;" horiz-adv-x="509" 
d="M305 540q-20 0 -38 11.5t-18 30.5q0 15 16 46q20 40 47 112q30 81 44 112t52 31q23 0 46.5 -13t23.5 -35q0 -15 -59 -131q-53 -103 -74 -138q-16 -26 -40 -26zM122 600q-21 0 -38 11.5t-17 31.5q0 16 15 46q20 40 47 112q31 82 45 112.5t52 30.5q23 0 44 -12
q25 -14 25 -36q0 -14 -59 -131q-53 -104 -73 -138q-17 -27 -41 -27z" />
    <glyph glyph-name="ellipsis" unicode="&#x2026;" horiz-adv-x="800" 
d="M718 181q0 -13 -12.5 -69t-18.5 -73q-8 -24 -56 -24q-42 0 -42 30q0 43 8 130q2 26 70 26q51 0 51 -20zM474 180q0 -13 -12.5 -69t-18.5 -73q-8 -24 -56 -24q-42 0 -42 30q0 43 8 130q2 26 70 26q51 0 51 -20zM230 179q0 -13 -12.5 -69t-18.5 -73q-8 -24 -56 -24
q-42 0 -42 30q0 43 8 130q2 26 70 26q51 0 51 -20z" />
    <glyph glyph-name="trademark" unicode="&#x2122;" horiz-adv-x="991" 
d="M928 486q0 -15 -16.5 -30.5t-31.5 -15.5q-8 0 -12 7q-14 23 -43 128q-15 52 -50 160q-26 -90 -52 -179q-45 -145 -72 -145q-5 0 -10 4q-37 25 -120 284q-33 -97 -59 -156q-16 -46 -54 -128q-7 -10 -15 -10q-15 0 -29.5 21.5t-14.5 38.5q0 4 24 53q83 166 115 306
q6 29 32 29q13 0 20 -17q14 -55 54 -163q31 -67 54 -125q57 148 100 329q6 28 32 28q15 0 26 -36q6 -24 12 -49q25 -96 44 -157q22 -56 65 -168q1 -5 1 -9zM249 807q-6 -71 -6 -135q0 -86 15 -190q8 -54 8 -57q0 -15 -18 -25q-14 -8 -31 -8q-16 0 -19 12q-11 40 -14 388
l-91 -28q-32 0 -32 41q0 31 25 42q78 37 169 37q36 0 62 -4q15 -3 35 -18.5t20 -29.5q0 -15 -52 -20q-36 -2 -71 -5z" />
    <glyph glyph-name="glyph109" 
 />
  </font>
</defs>
</svg>
